<svg width="17" height="16" viewBox="0 0 17 16" fill="none" xmlns="http://www.w3.org/2000/svg">
<path d="M8.00781 0.686523C8.09344 0.686582 8.16678 0.712848 8.24902 0.794922C8.33133 0.880864 8.35742 0.957969 8.35742 1.04395C8.35734 1.13078 8.33078 1.20478 8.24902 1.28711L1.8877 7.64844H15.2979C15.4194 7.64845 15.4945 7.68379 15.5586 7.74707C15.6207 7.80843 15.6553 7.88015 15.6553 8C15.6553 8.11985 15.6207 8.19158 15.5586 8.25293C15.4945 8.31621 15.4194 8.35155 15.2979 8.35156H1.8877L8.24316 14.707V14.7061C8.32543 14.7885 8.35371 14.8653 8.35449 14.957V14.958C8.35501 15.0245 8.34036 15.0829 8.29883 15.1426L8.24707 15.2041C8.16712 15.2851 8.09394 15.3113 8.00488 15.3105C7.91044 15.3096 7.83212 15.2796 7.74902 15.1973L0.800781 8.24902C0.74762 8.19485 0.721924 8.15272 0.709961 8.12402V8.12305C0.694853 8.08671 0.686523 8.04662 0.686523 7.99902C0.686553 7.95143 0.695164 7.91228 0.709961 7.87695V7.87598C0.721825 7.84751 0.747292 7.80515 0.800781 7.75098L7.75098 0.800781C7.84137 0.713558 7.92105 0.686523 8.00781 0.686523Z" fill="#0F595A" stroke="#0F595A"/>
</svg>
