<svg width="12" height="12" viewBox="0 0 12 12" fill="none" xmlns="http://www.w3.org/2000/svg">
<path d="M4.36523 0.5C5.44109 0.500035 6.34016 0.87319 7.09082 1.62891C7.84264 2.38579 8.21289 3.28681 8.21289 4.35938C8.21287 4.78975 8.14542 5.19836 8.01172 5.58691C7.87855 5.97375 7.6781 6.34007 7.40625 6.68652L7.13086 7.03711L7.44727 7.35059L11.4766 11.3467L11.4795 11.3496C11.4911 11.361 11.4941 11.3677 11.4951 11.3701C11.4964 11.3733 11.5 11.3841 11.5 11.4072C11.5 11.4309 11.4959 11.4421 11.4941 11.4463C11.4925 11.4503 11.4886 11.4586 11.4756 11.4717L11.4736 11.4736C11.4597 11.4877 11.4507 11.4923 11.4463 11.4941C11.442 11.4959 11.4303 11.5 11.4072 11.5C11.3859 11.5 11.3773 11.4966 11.376 11.4961C11.3752 11.4958 11.3738 11.4954 11.3721 11.4941L11.3496 11.4717L7.33594 7.46191L7.01074 7.13672L6.65918 7.43457C6.44744 7.61429 6.2064 7.76687 5.93359 7.89062L5.64941 8.00488C5.2621 8.14254 4.84366 8.21382 4.39062 8.21387C3.29383 8.21387 2.38311 7.83884 1.62891 7.08398C0.872518 6.3267 0.5 5.42636 0.5 4.35645C0.500061 3.28684 0.872617 2.38715 1.62988 1.62988C2.38659 0.873075 3.28911 0.5 4.36523 0.5ZM4.375 0.641602C3.34542 0.641602 2.45383 1.00667 1.73047 1.72949V1.73047C1.00864 2.45211 0.641664 3.3365 0.641602 4.35645C0.641602 5.37646 1.00791 6.26166 1.72949 6.9834C2.4526 7.70663 3.34461 8.07227 4.375 8.07227C5.3977 8.07222 6.28179 7.70546 6.99707 6.98145C7.71054 6.25925 8.07227 5.37456 8.07227 4.35645C8.07221 3.40193 7.754 2.56501 7.12598 1.86914L6.99609 1.73242C6.2806 1.00856 5.39707 0.64165 4.375 0.641602Z" fill="white" stroke="white"/>
</svg>
