<svg width="60" height="38" viewBox="0 0 60 38" fill="none" xmlns="http://www.w3.org/2000/svg">
<path d="M49.3088 0H60V0.929294C58.0562 1.23906 56.4362 3.66576 54.0388 9.96465L43.542 38H41.2093L31.3606 13.9918L20.6047 38H18.272L5.89628 6.60865C4.21159 2.32336 2.78626 1.13597 0 0.929294V0H15.0973V0.929294C11.1448 1.13572 10.1081 2.06527 11.2744 5.21458L20.9936 30.0489L29.7408 10.0163L28.3152 6.60865C26.5009 2.27169 25.2698 1.13572 22.2893 0.929294V0H37.3866V0.929294C33.4991 1.13572 32.3975 2.06527 33.6933 5.21458L43.6069 29.4294L50.9288 9.44846C53.1966 3.20124 53.5206 1.23906 49.309 0.929294L49.3088 0Z" fill="white"/>
</svg>
